<?xml version="1.0" encoding="utf-8"?>
<!-- Generator: Adobe Illustrator 21.0.0, SVG Export Plug-In . SVG Version: 6.00 Build 0)  -->
<svg version="1.1"
	 id="Calque_1" xmlns:cc="http://creativecommons.org/ns#" xmlns:dc="http://purl.org/dc/elements/1.1/" xmlns:inkscape="http://www.inkscape.org/namespaces/inkscape" xmlns:rdf="http://www.w3.org/1999/02/22-rdf-syntax-ns#" xmlns:sodipodi="http://sodipodi.sourceforge.net/DTD/sodipodi-0.dtd" xmlns:svg="http://www.w3.org/2000/svg"
	 xmlns="http://www.w3.org/2000/svg" xmlns:xlink="http://www.w3.org/1999/xlink" x="0px" y="0px" viewBox="0 0 100 125"
	 style="enable-background:new 0 0 100 125;" xml:space="preserve">
<style type="text/css">
	.st0{fill:#FFFFFF;}
</style>
<g transform="translate(0,-952.36218)">
	<path class="st0" d="M70.5,981.9c-0.4-0.4-1-0.4-1.4,0L50,1000.9l-19.1-19.1c-0.4-0.4-1-0.4-1.4,0c-0.4,0.4-0.4,1,0,1.4l19.1,19.1
		l-19.1,19.1c-0.4,0.4-0.4,1,0,1.4c0.4,0.4,1,0.4,1.4,0l19.1-19.1l19.1,19.1c0.4,0.4,1,0.4,1.4,0c0.4-0.4,0.4-1,0-1.4l-19.1-19.1
		l19.1-19.1C70.9,982.9,70.9,982.2,70.5,981.9z"/>
</g>
</svg>
