<svg xmlns="http://www.w3.org/2000/svg" viewBox="-71.997 120.106 257.526 93.968">
  <defs>
    <style>
      .cls-1 {
        fill: #fff;
        fill-rule: evenodd;
      }
    </style>
  </defs>
  <g id="logo-full" transform="translate(-95.997 116.352)">
    <g id="VF-TdA" transform="translate(24 3.754)">
      <g id="Page2" transform="translate(0 0)">
        <path id="Fill-1" class="cls-1" d="M87.225,85.14v-.169l.284-.08c.355-.1.426-.169.426-.9v-3.7c0-.73-.071-.8-.426-.9l-.284-.071v-.169c.719-.027,2.058-.062,2.848-.062,1.083,0,2.343.294,2.343,1.719,0,1.522-1.57,2.021-2.848,2l-.018-.356a1.4,1.4,0,0,0,1.437-1.541,1.258,1.258,0,0,0-1.331-1.433,3.429,3.429,0,0,0-.355.027v4.488c0,.73.08.828.444.9l.461.08v.169Z" transform="translate(9.53 8.641)"/>
        <path id="Fill-3" class="cls-1" d="M103.382,81.014a7.774,7.774,0,0,1-.275-.935h-.036c-.044.2-.2.632-.337,1l-.595,1.612h1.8Zm.5,4.123v-.169l.355-.081c.328-.062.382-.187.142-.9l-.293-.855h-2.1l-.257.694c-.266.73-.257.98.106,1.059l.328.081v.169h-1.872v-.169l.177-.072c.231-.1.3-.231.586-.944l1.331-3.375c.355-.908.373-1.113-.018-1.2l-.338-.081v-.169h2.9v.169l-.337.081c-.391.089-.355.285-.018,1.2l1.242,3.41c.248.685.337.811.559.908l.177.072v.169Z" transform="translate(10.957 8.645)"/>
        <path id="Fill-5" class="cls-1" d="M120.491,85.327c-1.313,0-1.837-.677-2.485-1.736-.293-.472-.692-1.1-.959-1.478h.2a1.222,1.222,0,0,0,1.348-1.327,1.236,1.236,0,0,0-1.384-1.309,1.371,1.371,0,0,0-.275.027v4.488c0,.73.071.8.426.9l.284.08v.169h-2.786v-.169l.284-.08c.355-.1.426-.169.426-.9V80.3c0-.73-.071-.81-.426-.908l-.284-.071v-.169c.878-.036,1.845-.062,2.848-.062,1.082,0,2.324.294,2.324,1.567a1.617,1.617,0,0,1-1.411,1.514,14.028,14.028,0,0,0,.94,1.363c.586.792,1.163,1.451,1.695,1.451a.689.689,0,0,0,.2-.027l.053.187a2.66,2.66,0,0,1-1.02.187" transform="translate(12.55 8.641)"/>
        <path id="Fill-7" class="cls-1" d="M129.518,85.136v-.169l.284-.08c.355-.1.426-.169.426-.9V80.274c0-.73-.071-.8-.426-.9l-.284-.08v-.169H132.3V79.3l-.284.08c-.355.1-.426.169-.426.9v3.713c0,.73.071.8.426.9l.284.08v.169Z" transform="translate(14.151 8.645)"/>
        <path id="Fill-9" class="cls-1" d="M142.927,85.308a3.96,3.96,0,0,1-1.393-.267l-.275-1.4.213-.062.23.5a1.286,1.286,0,0,0,1.234.766c.613,0,1.207-.3,1.207-1.015,0-.588-.506-.891-.976-1.122l-.532-.258a1.83,1.83,0,0,1-1.216-1.611A1.883,1.883,0,0,1,143.495,79a4.454,4.454,0,0,1,.736.071c.338.062.426.071.453-.027l.035-.107h.231V80.66h-.222l-.115-.552c-.062-.32-.355-.677-1.163-.677a.878.878,0,0,0-.976.828c0,.561.586.81,1.011,1.033l.524.258a1.924,1.924,0,0,1,1.215,1.692,2.084,2.084,0,0,1-2.3,2.065" transform="translate(15.434 8.625)"/>
        <path id="Fill-11" class="cls-1" d="M93.576,19.785l.635-.111c.4-.071.494-.182.494-.991V15.992c0-.8-.091-.92-.494-.991l-.635-.111V14.7h3.689v.192L96.63,15c-.4.071-.494.172-.494.981v2.7c0,.809.091.92.494.991l.635.111v.192H93.576Z" transform="translate(10.224 1.606)"/>
        <path id="Fill-13" class="cls-1" d="M99.857,21.488c-.151,0-.353,0-.555-.01l.01-.364c.151.01.323.01.453.01,1.008,0,2.207-.424,2.207-1.578,0-1.183-1.32-1.618-2.409-1.74l.454-3.065h1.522c1.008,0,1.109-.04,1.209-.263l.081-.192.242.04-.283,1.416h-2.358l-.172,1.072c1.5.192,2.923.89,2.923,2.366,0,1.629-1.865,2.306-3.326,2.306" transform="translate(10.85 1.561)"/>
        <path id="Fill-15" class="cls-1" d="M131.573,14.777c0-.637-.363-1.072-.9-1.072a.861.861,0,0,0-.8.94c0,.728.574,1.112,1.078,1.436a1.625,1.625,0,0,0,.615-1.3m0,3.833c0-.87-.826-1.335-1.451-1.76a1.815,1.815,0,0,0-.7,1.618c0,.779.413,1.4,1.109,1.4a1.121,1.121,0,0,0,1.038-1.254m-3.235-.152a2.106,2.106,0,0,1,1.441-1.8,1.9,1.9,0,0,1-1.059-1.618,1.855,1.855,0,0,1,2.046-1.719,1.612,1.612,0,0,1,1.8,1.467c0,.8-.716,1.2-1.27,1.477a2.436,2.436,0,0,1,1.522,1.993,2.115,2.115,0,0,1-2.318,2c-1.058,0-2.167-.546-2.167-1.8" transform="translate(14.022 1.455)"/>
        <path id="Fill-17" class="cls-1" d="M134.942,19.995v-.627a9.555,9.555,0,0,0,1.471-.9,2.638,2.638,0,0,0,1.28-1.881,1.22,1.22,0,0,0-1.269-1.173,1.776,1.776,0,0,0-1.321.546l-.221-.242a2.843,2.843,0,0,1,2.318-1.184,1.837,1.837,0,0,1,1.945,1.649,2.627,2.627,0,0,1-1.381,1.942c-.494.334-1.24.83-1.592,1.031H138c1.008,0,1.331-.151,1.5-.566l.151-.354.242.051-.342,1.709Z" transform="translate(14.737 1.588)"/>
        <path id="Fill-19" class="cls-1" d="M118.771,29.05v-.009l.123-.971a4.354,4.354,0,0,1,3.238,4.074v6.749l-.135.02s-.463.063-.689.089V32.61a3.768,3.768,0,0,0-2.537-3.56Zm-4.963,3.56V39c-.226-.026-.69-.089-.69-.089l-.136-.02V32.143a4.353,4.353,0,0,1,3.239-4.074l.121.958,0,.022a3.768,3.768,0,0,0-2.537,3.56Zm-9.366,2.6,0,0a30.662,30.662,0,0,0,6,2.095l.039.009.1-.446-.039-.009a30.154,30.154,0,0,1-5.863-2.043l.585-.942,0,0a28.906,28.906,0,0,0,2.96,1.18l.038.013.144-.434-.038-.013a28.441,28.441,0,0,1-2.866-1.14l.523-.841.005,0a27.423,27.423,0,0,0,4.242,1.522l.039.011.118-.442-.039-.011a26.953,26.953,0,0,1-4.122-1.474l.6-.958a25.992,25.992,0,0,0,5.631,1.783v5.74a31.476,31.476,0,0,1-8.631-2.7Zm3.043-6.112c.844.311,1.729.592,2.631.834l.044.012.067-.457-.035-.009c-.9-.243-1.785-.526-2.631-.839l-.008,0c.033-.222.09-.609.136-.924a34.608,34.608,0,0,0,3.954.99l.042.008.068-.455-.038-.007a34.115,34.115,0,0,1-3.951-.993l-.006,0L109.9,12.692l.02-.008a21.571,21.571,0,0,1,2.393-.748l.038-.009-.094-.448-.04.01a21.726,21.726,0,0,0-2.241.688l.166-1.127.02-.006a22.886,22.886,0,0,1,3.473-.88l.049-.011-.094-.444-.038.007a23.165,23.165,0,0,0-3.334.828c.027-.178.14-.937.141-.937l-.313-1.056q.559-.163,1.138-.3l.284.978q.494-.133,1.05-.244L112.331,8q.569-.109,1.152-.2l.19.983c.345-.049.7-.091,1.067-.126l-.1-1c.386-.04.774-.072,1.168-.1l.093,1.008q.524-.029,1.069-.039V7.521c.194,0,.584-.006.584-.006.195,0,.389,0,.582.006V8.535q.544.012,1.069.039l.094-1.008q.59.036,1.167.1l-.095,1q.55.053,1.067.126l.191-.983c.389.057.772.123,1.151.2l-.188.983c.37.074.721.155,1.051.244l.284-.978q.579.139,1.137.3l-.314,1.056s.116.759.142.937a23.2,23.2,0,0,0-3.335-.828l-.038-.007-.084.405-.015.049h.05a22.824,22.824,0,0,1,3.478.88l.02.006.166,1.127a21.95,21.95,0,0,0-2.241-.688l-.041-.01-.094.448.038.009a21.482,21.482,0,0,1,2.393.748l.021.008,2.147,14.557-.006,0a34.117,34.117,0,0,1-3.95.993l-.038.007.067.455.041-.008a34.613,34.613,0,0,0,3.954-.99c.046.315.1.7.136.924l-.008,0c-.852.315-1.737.6-2.631.839l-.035.009.067.457L125,29.93c.9-.241,1.783-.521,2.632-.834l.133.906a24.223,24.223,0,0,1-5.19,1.683,4.824,4.824,0,0,0-3.621-4.091l.071-.567H116.09l.071.567a4.827,4.827,0,0,0-3.622,4.091h0A24.273,24.273,0,0,1,107.35,30Zm1.8-21.625q-.213-.362-.42-.734a27.373,27.373,0,0,1,3.577-.926l.04-.007-.083-.45-.04.007a27.744,27.744,0,0,0-3.712.968l-.007,0c-.063-.117-.28-.517-.405-.753.346-.119.683-.228,1-.324l.039-.012-.131-.438-.039.012c-.348.1-.711.222-1.081.349l-.006,0c-.1-.2-.642-1.282-1.159-2.377.873-.313,1.77-.589,2.677-.827l.577,2.471s1.5-.393,2.9-.615c-.085-.486-.46-2.487-.46-2.487a32.044,32.044,0,0,1,3.471-.358l.062,2.534s.895-.038,1.476-.038,1.475.038,1.475.038l.062-2.534a32.038,32.038,0,0,1,3.471.358s-.375,2-.459,2.487c1.392.223,2.894.615,2.894.615l.578-2.471c.907.238,1.8.514,2.676.827-.515,1.091-1.055,2.169-1.159,2.377l-.006,0c-.361-.125-.724-.242-1.082-.349l-.038-.012-.129.438.039.012c.319.1.657.205,1,.324-.125.236-.342.637-.407.753l-.006,0a27.753,27.753,0,0,0-3.712-.968l-.04-.007-.083.45.04.007a27.349,27.349,0,0,1,3.577.926q-.209.371-.42.734a27.031,27.031,0,0,0-8.056-1.214h-.433a27.027,27.027,0,0,0-8.056,1.214Zm19.55,24.781a26.949,26.949,0,0,1-4.122,1.474l-.039.011.118.442.038-.011a27.477,27.477,0,0,0,4.244-1.522l0,0,.523.84a28.492,28.492,0,0,1-2.865,1.14l-.038.013.144.434.038-.013a28.907,28.907,0,0,0,2.96-1.18l0,0,.586.942a30.18,30.18,0,0,1-5.864,2.043l-.04.009.1.446.039-.009a30.692,30.692,0,0,0,6-2.095l0,0,.566.91a31.457,31.457,0,0,1-8.632,2.7V33.077a25.991,25.991,0,0,0,5.631-1.784Zm-11.9-2.233-.322-2.533h1.9l-.324,2.533ZM132.584,36.5l-3.818-6.139L125.689,9.51q.2-.317.4-.637c.223-.367.439-.734.646-1.1a60.567,60.567,0,0,0,2.791-5.517,34.471,34.471,0,0,0-4.6-1.423c-.062.27-.611,2.586-.611,2.586q-.587-.135-1.178-.247L123.62.563A34.877,34.877,0,0,0,118.214,0c-.009.556-.057,2.669-.057,2.669-.106,0-.6,0-.6,0s-.494,0-.6,0c0,0-.047-2.113-.057-2.669a34.887,34.887,0,0,0-5.407.562l.486,2.615c-.393.074-.787.157-1.178.247,0,0-.549-2.316-.611-2.586a34.524,34.524,0,0,0-4.6,1.423,60.954,60.954,0,0,0,2.792,5.517c.208.362.423.728.647,1.1q.194.319.395.637L106.35,30.363,102.531,36.5a32.609,32.609,0,0,0,12.214,3.544V32.61a2.837,2.837,0,0,1,1.727-2.6v0c.012.075.056.428.056.428l0,.035h2.047l0-.035c.017-.132.042-.331.053-.408l0-.023a2.838,2.838,0,0,1,1.728,2.6v7.436A32.6,32.6,0,0,0,132.584,36.5Z" transform="translate(11.203 0)"/>
        <path id="Fill-21" class="cls-1" d="M114.148,16.87c.013-.3.069-1.633.081-1.886h0l.764-.017c.469-.011.953-.021,1.259-.024,0,.314-.006,1.717-.007,1.926h-2.1Zm2.126-7.294c0,1-.006,1.782-.01,2.557-.608.005-1.457.048-1.9.076.041-.228.292-1.135,1.905-2.633Zm2.365,2.633c-.438-.028-1.288-.07-1.9-.076,0,0-.007-1.94-.008-2.558,1.615,1.5,1.863,2.406,1.905,2.634Zm-1.878,4.661h0c0-.106,0-.518,0-.94s0-.831,0-.987c.306,0,.791.013,1.26.024l.763.017h0c.012.253.068,1.584.081,1.886Zm-2.428-4.2c.716-.049,1.313-.073,1.93-.078,0,.238-.006,1.428-.007,1.9-.286,0-.734.013-1.207.023l-.8.017c.011-.254.071-1.619.081-1.863Zm3.63,1.846c-.475-.011-.925-.02-1.211-.023,0-.312,0-.936-.006-1.393,0-.236,0-.427,0-.508.617,0,1.214.029,1.931.078h0c.011.244.069,1.609.079,1.863l-.8-.017Zm-1.993,3.88h1.067c0-.284-.008-.582-.008-.582l3.8,0c-.024-.313-.073-.94-.073-.94h-.9s-.162-2.626-.24-3.888q.425.042.848.1c-.009-.106-.058-.734-.075-.94-.293-.038-.588-.071-.882-.1-.492-1.887-3-3.833-3-3.833s-2.514,1.946-3.006,3.833q-.442.042-.884.1c-.016.207-.064.834-.073.94q.423-.053.847-.1c-.078,1.261-.24,3.888-.24,3.888h-.9s-.05.627-.073.94l3.806,0s-.005.3-.008.582Z" transform="translate(12.256 0.896)"/>
        <path id="Fill-23" class="cls-1" d="M120.145,18.951c.055.916.1,1.678.152,2.437-.441.057-.837.1-1.28.137,0-.04,0-.1-.005-.127a3.289,3.289,0,0,1,1.133-2.447M121.992,21c0,.025.008.087.011.129h0c-.427.077-.824.141-1.246.2-.052-.751-.1-1.506-.163-2.411a2.725,2.725,0,0,1,1.4,2.08M120.92,23.76l-.136-1.974c.412-.059.813-.123,1.259-.2.058.656.114,1.312.173,1.969-.432.078-.863.146-1.3.208m-1.881-1.774h0c.456-.04.854-.082,1.285-.137l.126,1.975q-.661.086-1.325.146-.045-.991-.088-1.984m-.967-.515q.054,1.762.11,3.523a36.419,36.419,0,0,0,5.092-.688l-.352-3.491a3.876,3.876,0,0,0-2.65-3.108,4.628,4.628,0,0,0-2.2,3.763" transform="translate(12.901 1.934)"/>
        <path id="Fill-25" class="cls-1" d="M112.217,23.823v0q.042-.676.086-1.352l.04-.622c.431.055.829.1,1.286.137h0q-.044.992-.089,1.984-.662-.06-1.324-.146m-1.593-2.24c.448.08.849.145,1.26.2l-.136,1.974q-.648-.092-1.3-.208.086-.985.172-1.969m1.454-2.667c-.042.634-.08,1.195-.117,1.732l-.046.679c-.423-.06-.821-.125-1.248-.2h0c0-.042.008-.1.011-.129a2.723,2.723,0,0,1,1.4-2.08m1.578,2.483c0,.027,0,.086-.005.127-.441-.038-.837-.08-1.28-.137l.05-.8c.032-.508.065-1.041.1-1.638a3.292,3.292,0,0,1,1.133,2.447m.94.073a4.628,4.628,0,0,0-2.2-3.764,3.877,3.877,0,0,0-2.648,3.108q-.177,1.746-.352,3.491a36.444,36.444,0,0,0,5.092.688q.054-1.762.109-3.523" transform="translate(11.953 1.934)"/>
        <g id="Group-29" transform="translate(0 52.041)">
          <path id="Fill-27" class="cls-1" d="M.433.143h16.2L17.109,7.4h-.346L14.293,1.23l-3.812-.3V21.484l2.512.652v.348H4.071v-.348l2.556-.652V.926l-3.811.3L.346,7.4H0Z" transform="translate(0 -0.143)"/>
        </g>
        <path id="Fill-30" class="cls-1" d="M34.227,58.189c0-6.346-1.256-11-5.371-11-3.682,0-5.284,4.477-5.284,10.909,0,6.346,1.256,11,5.371,11,3.725,0,5.284-4.477,5.284-10.909m4.158,0c0,6.694-3.812,11.735-9.442,11.735-5.8,0-9.615-4.955-9.615-11.822,0-6.693,3.942-11.735,9.529-11.735,5.761,0,9.529,4.868,9.529,11.822" transform="translate(2.112 5.066)"/>
        <path id="Fill-32" class="cls-1" d="M43.332,59.825l.217-11.909-2.512-.652v-.348h8.923v.348l-2.556.652-.26,12.17c-.13,5.259,1.689,8.214,5.111,8.214,3.335,0,5.414-2.912,5.241-8.258l-.39-12.127-3.855-.652v-.348H61v.348l-2.512.652.13,12.127c.043,6.215-2.382,9.823-7.19,9.823-5.2,0-8.229-3.564-8.1-10.04" transform="translate(4.484 5.126)"/>
        <path id="Fill-34" class="cls-1" d="M75.362,52.957c0-2.651-1.083-4.868-4.288-5.129l-2.036-.13V58l2.036-.087c3.292-.217,4.288-2.216,4.288-4.955Zm-12.734,16.3v-.348l2.512-.652V47.915l-2.512-.652v-.348H70.6c5.977,0,8.836,2.521,8.836,5.955,0,3.043-1.906,5.042-6.194,5.607v.13l3.292,2.043,2.989,4.955c1.126,1.912,1.776,2.912,3.638,3.3v.348c-4.634.7-6.237-.522-7.71-3.476l-3.465-6.868-2.945-.174v9.519l2.512.652v.348Z" transform="translate(6.843 5.126)"/>
        <path id="Fill-36" class="cls-1" d="M92.886,50.75l-1.256-.087V64.224l1.3-.087c2.686-.217,4.115-2.912,4.115-6.694s-1.429-6.476-4.158-6.693M92.8,64.876H86.562v-.348l1.949-.435v-13.3l-1.949-.435v-.347h6.151c4.418,0,7.71,2.651,7.71,7.432,0,4.738-3.291,7.432-7.623,7.432" transform="translate(9.458 5.464)"/>
        <path id="Fill-38" class="cls-1" d="M100.93,56.961a11.566,11.566,0,0,0,2.339-6.172l-1.732-.391v-.347h4.634c-.606,2.912-2.3,5-4.851,7.214Z" transform="translate(11.028 5.468)"/>
        <path id="Fill-40" class="cls-1" d="M119.336,60.075l-2.989-8.823-3.032,8.736,3.075,2.347Zm-12.041,9.3v-.348l1.733-.652,8.316-22.558h.909l8.013,22.558,1.689.652v.348h-8.273v-.348l2.469-.652-2.512-7.432L116.39,63.9l-3.378-3.042-2.642,7.519,3.465.652v.348Z" transform="translate(11.723 5.006)"/>
        <path id="Fill-42" class="cls-1" d="M142.088,52.957c0-2.651-1.083-4.868-4.288-5.129l-2.036-.13V58l2.036-.087c3.292-.217,4.288-2.216,4.288-4.955Zm-12.734,16.3v-.348l2.512-.652V47.915l-2.512-.652v-.348h7.97c5.977,0,8.836,2.521,8.836,5.955,0,3.043-1.906,5.042-6.194,5.607v.13l3.292,2.043,2.989,4.955c1.126,1.912,1.776,2.912,3.638,3.3v.348c-4.634.7-6.237-.522-7.71-3.476l-3.465-6.868-2.945-.174v9.519l2.512.652v.348Z" transform="translate(14.133 5.126)"/>
        <path id="Fill-44" class="cls-1" d="M168.813,69.963h-.39L166.3,68.876a11.992,11.992,0,0,1-4.981,1.087c-6.887,0-10.179-5.389-10.179-11.822,0-6.693,3.812-11.735,10.612-11.735a12.231,12.231,0,0,1,4.851.956l1.559-1.347.52,7.389h-.3l-2.512-4.824a7.1,7.1,0,0,0-4.2-1.217c-4.5,0-6.28,4.564-6.28,10.779,0,5.955,1.949,10.866,6.367,10.866a9.1,9.1,0,0,0,3.162-.565V60.4l-3.378-.652V59.4h9.356v.348l-2.079.652Z" transform="translate(16.514 5.027)"/>
        <path id="Fill-46" class="cls-1" d="M189.7,69.256H173.67v-.348l2.512-.652V47.916l-2.512-.652v-.348h15.506l.477,6.389h-.3l-2.512-5.216-6.757-.391v9.779l5.457-.174,1.429-2.956h.26v7.128h-.216l-1.473-3.13-5.457-.13V68.474l7.277-.391,2.772-6.259h.3Z" transform="translate(18.975 5.126)"/>
        <path id="Fill-48" class="cls-1" d="M201.93,69.256h-7.84v-.348l2.512-.652V48.437l-2.512-1.174v-.348H200.5l11,18.038-.3-17.038-3.985-.652v-.348h7.839v.348l-2.555.652V66.562l1.429,2.347v.348h-4.115L197.556,49.263l.346,18.993,4.028.652Z" transform="translate(21.207 5.126)"/>
        <g id="Group-52" transform="translate(240.417 52.041)">
          <path id="Fill-50" class="cls-1" d="M.5.143H16.7L17.172,7.4h-.346L14.356,1.23l-3.812-.3V21.484l2.512.652v.348H4.134v-.348l2.556-.652V.926l-3.811.3L.409,7.4H.063Z" transform="translate(-0.063 -0.143)"/>
        </g>
      </g>
    </g>
  </g>
</svg>
