<svg id="Calque_1" data-name="Calque 1" xmlns="http://www.w3.org/2000/svg" viewBox="0 0 257.53 93.97"><defs><style>.cls-1{fill:#fff;}</style></defs><title>small-logo</title><g id="logo-full"><g id="VF-TdA"><g id="Page2"><path id="Fill-1" class="cls-1" d="M96.75,93.78v-.17l.28-.08c.36-.1.43-.17.43-.9v-3.7c0-.73-.07-.8-.43-.9L96.75,88v-.17c.72,0,2.06-.06,2.85-.06,1.08,0,2.34.29,2.34,1.72s-1.57,2-2.85,2l0-.36a1.4,1.4,0,0,0,1.44-1.54,1.26,1.26,0,0,0-1.07-1.42h-.26l-.36,0v4.49c0,.73.08.83.44.9l.46.08v.17Z" transform="translate(0 0)"/><path id="Fill-3" class="cls-1" d="M114.34,89.66a7.77,7.77,0,0,1-.28-.93h0c0,.2-.2.63-.34,1l-.6,1.61h1.8Zm.5,4.12v-.17l.36-.08c.33-.06.38-.19.14-.9l-.29-.86h-2.1l-.26.69c-.27.73-.26,1,.11,1.06l.33.08v.17h-1.87v-.17l.18-.07c.23-.1.3-.23.59-.94l1.33-3.37c.36-.91.37-1.11,0-1.2l-.34-.08v-.17h2.9v.17l-.34.08c-.39.09-.36.29,0,1.2l1.24,3.41c.25.68.34.81.56.91l.18.07v.17Z" transform="translate(0 0)"/><path id="Fill-5" class="cls-1" d="M133,94c-1.31,0-1.84-.68-2.49-1.74-.29-.47-.69-1.1-1-1.48h.2a1.22,1.22,0,0,0,1.35-1.33A1.24,1.24,0,0,0,130,88.11h-.23l-.28,0v4.49c0,.73.07.8.43.9l.28.08v.17h-2.79v-.17l.28-.08c.36-.1.43-.17.43-.9V88.94c0-.73-.07-.81-.43-.91l-.28-.07v-.17c.88,0,1.85-.06,2.85-.06s2.32.29,2.32,1.57a1.62,1.62,0,0,1-1.41,1.51,14,14,0,0,0,.94,1.36c.59.79,1.16,1.45,1.69,1.45l.2,0,.05.19a2.66,2.66,0,0,1-1,.19" transform="translate(0 0)"/><path id="Fill-7" class="cls-1" d="M143.67,93.78v-.17l.28-.08c.35-.1.43-.17.43-.9V88.92c0-.73-.07-.8-.43-.9l-.28-.08v-.17h2.78v.18l-.28.08c-.35.1-.43.17-.43.9v3.71c0,.73.07.8.43.9l.28.08v.17Z" transform="translate(0 0)"/><path id="Fill-9" class="cls-1" d="M158.36,93.93a4,4,0,0,1-1.39-.27l-.27-1.4.21-.06.23.5a1.29,1.29,0,0,0,1.23.77c.61,0,1.21-.3,1.21-1s-.51-.89-1-1.12l-.53-.26a1.83,1.83,0,0,1-1.22-1.61,1.88,1.88,0,0,1,1.92-1.85h.16a4.45,4.45,0,0,1,.74.07c.34.06.43.07.45,0l0-.11h.23v1.72h-.22l-.12-.55c-.06-.32-.35-.68-1.16-.68a.88.88,0,0,0-1,.77v.05c0,.56.59.81,1,1l.52.26a1.92,1.92,0,0,1,1.21,1.69,2.08,2.08,0,0,1-2.09,2.08h-.21" transform="translate(0 0)"/><path id="Fill-11" class="cls-1" d="M103.8,21.39l.64-.11c.4-.07.49-.18.49-1V17.6c0-.8-.09-.92-.49-1l-.64-.11v-.19h3.69v.19l-.64.11c-.4.07-.49.17-.49,1v2.7c0,.81.09.92.49,1l.64.11v.19H103.8Z" transform="translate(0 0)"/><path id="Fill-13" class="cls-1" d="M110.71,23h-.56v-.36h.45c1,0,2.21-.42,2.21-1.58s-1.32-1.62-2.41-1.74l.45-3.07h1.52c1,0,1.11,0,1.21-.26l.08-.19.24,0-.28,1.42h-2.36l-.17,1.07c1.5.19,2.92.89,2.92,2.37,0,1.63-1.86,2.31-3.33,2.31" transform="translate(0 0)"/><path id="Fill-15" class="cls-1" d="M145.59,16.23c0-.64-.36-1.07-.9-1.07a.86.86,0,0,0-.8.92v0c0,.73.57,1.11,1.08,1.44a1.63,1.63,0,0,0,.62-1.3m0,3.83c0-.87-.83-1.33-1.45-1.76a1.82,1.82,0,0,0-.7,1.62c0,.78.41,1.4,1.11,1.4a1.12,1.12,0,0,0,1-1.19v-.06m-3.24-.15a2.11,2.11,0,0,1,1.44-1.8,1.9,1.9,0,0,1-1.06-1.62,1.85,1.85,0,0,1,2-1.73h.07a1.61,1.61,0,0,1,1.79,1.41v.06c0,.8-.72,1.2-1.27,1.48a2.44,2.44,0,0,1,1.52,2,2.12,2.12,0,0,1-2.22,2h-.1c-1.06,0-2.17-.55-2.17-1.8" transform="translate(0 0)"/><path id="Fill-17" class="cls-1" d="M149.68,21.58V21a9.56,9.56,0,0,0,1.47-.9,2.64,2.64,0,0,0,1.28-1.88A1.22,1.22,0,0,0,151.16,17h0a1.78,1.78,0,0,0-1.32.55l-.22-.24a2.84,2.84,0,0,1,2.32-1.18,1.84,1.84,0,0,1,1.95,1.65,2.63,2.63,0,0,1-1.38,1.94c-.49.33-1.24.83-1.59,1h1.83c1,0,1.33-.15,1.5-.57l.15-.35.24.05-.34,1.71Z" transform="translate(0 0)"/><path id="Fill-19" class="cls-1" d="M130,29.05h0l.12-1a4.35,4.35,0,0,1,3.24,4.07v6.75l-.14,0-.69.09V32.61A3.77,3.77,0,0,0,130,29.05Zm-5,3.56V39l-.69-.09-.14,0V32.14a4.35,4.35,0,0,1,3.24-4.07l.12,1v0A3.77,3.77,0,0,0,125,32.61Zm-9.37,2.6h0a30.66,30.66,0,0,0,6,2.1h0l.1-.45h0a30.15,30.15,0,0,1-5.86-2l.58-.94h0a28.91,28.91,0,0,0,3,1.18h0l.14-.43h0a28.44,28.44,0,0,1-2.87-1.14l.52-.84h0a27.42,27.42,0,0,0,4.24,1.52h0l.12-.44h0a27,27,0,0,1-4.12-1.47l.6-1a26,26,0,0,0,5.63,1.78v5.74a31.48,31.48,0,0,1-8.63-2.7Zm3-6.11c.84.31,1.73.59,2.63.83h0l.07-.46h0c-.9-.24-1.79-.53-2.63-.84h0l.14-.92a34.61,34.61,0,0,0,4,1h0l.07-.45h0a34.12,34.12,0,0,1-4-1h0l2.14-14.57h0a21.57,21.57,0,0,1,2.39-.75h0l-.09-.45h0a21.73,21.73,0,0,0-2.24.69l.17-1.13h0a22.89,22.89,0,0,1,3.47-.88h0l-.09-.44h0a23.16,23.16,0,0,0-3.33.83l.14-.94-.31-1.06q.56-.16,1.14-.3l.28,1q.49-.13,1.05-.24l-.19-1,1.15-.2.19,1,1.07-.13-.1-1,1.17-.1.09,1,1.07,0v-1h1.17v1l1.07,0,.09-1,1.17.1-.1,1,1.07.13.19-1q.58.09,1.15.2l-.19,1q.56.11,1.05.24l.28-1,1.14.3L136,9.61l.14.94a23.2,23.2,0,0,0-3.33-.83h0l-.08.4v0h.05a22.82,22.82,0,0,1,3.48.88h0l.17,1.13a22,22,0,0,0-2.24-.69h0l-.09.45h0a21.48,21.48,0,0,1,2.39.75h0l2.15,14.56h0a34.12,34.12,0,0,1-3.95,1h0l.07.45h0a34.61,34.61,0,0,0,4-1c0,.32.1.7.14.92h0c-.85.32-1.74.6-2.63.84h0l.07.46h0c.9-.24,1.78-.52,2.63-.83L139,30a24.22,24.22,0,0,1-5.19,1.68,4.82,4.82,0,0,0-3.62-4.09l.07-.57h-2.94l.07.57a4.83,4.83,0,0,0-3.62,4.09h0A24.27,24.27,0,0,1,118.55,30Zm1.8-21.63-.42-.73a27.37,27.37,0,0,1,3.58-.93h0l-.08-.45h0a27.74,27.74,0,0,0-3.71,1h0l-.4-.75,1-.32h0l-.13-.44h0c-.35.1-.71.22-1.08.35h0c-.1-.2-.64-1.28-1.16-2.38.87-.31,1.77-.59,2.68-.83l.58,2.47s1.5-.39,2.9-.62c-.08-.49-.46-2.49-.46-2.49A32,32,0,0,1,127.23,1l.06,2.53s.89,0,1.48,0,1.47,0,1.47,0L130.3,1a32,32,0,0,1,3.47.36s-.37,2-.46,2.49c1.39.22,2.89.62,2.89.62L136.79,2q1.36.36,2.68.83c-.51,1.09-1.06,2.17-1.16,2.38h0l-1.08-.35h0l-.13.44h0l1,.32-.41.75h0a27.75,27.75,0,0,0-3.71-1h0l-.08.45h0a27.35,27.35,0,0,1,3.58.93l-.42.73A27,27,0,0,0,129,6.26h-.43a27,27,0,0,0-8.06,1.21ZM140,32.25a27,27,0,0,1-4.12,1.47h0l.12.44h0a27.48,27.48,0,0,0,4.24-1.52h0l.52.84a28.49,28.49,0,0,1-2.86,1.14h0l.14.43h0a28.91,28.91,0,0,0,3-1.18h0l.59.94a30.18,30.18,0,0,1-5.86,2h0l.1.45h0a30.69,30.69,0,0,0,6-2.1h0l.57.91a31.46,31.46,0,0,1-8.63,2.7V33.08a26,26,0,0,0,5.63-1.78ZM128.14,30l-.32-2.53h1.9L129.39,30Zm15.65,6.48L140,30.36,136.89,9.51l.4-.64q.33-.55.65-1.1a60.57,60.57,0,0,0,2.79-5.52,34.47,34.47,0,0,0-4.6-1.42l-.61,2.59-1.18-.25.48-2.61A34.88,34.88,0,0,0,129.42,0c0,.56-.06,2.67-.06,2.67h-1.2s0-2.11-.06-2.67a34.89,34.89,0,0,0-5.41.56l.49,2.62L122,3.42,121.39.84a34.52,34.52,0,0,0-4.6,1.42,61,61,0,0,0,2.79,5.52l.65,1.1.39.64-3.07,20.85-3.82,6.14A32.61,32.61,0,0,0,125.95,40V32.61a2.84,2.84,0,0,1,1.73-2.6h0c0,.08.06.43.06.43v0h2v0l.05-.41v0a2.84,2.84,0,0,1,1.73,2.6V40A32.6,32.6,0,0,0,143.79,36.5Z" transform="translate(0 0)"/><path id="Fill-21" class="cls-1" d="M126.4,17.77c0-.3.07-1.63.08-1.89h0l.76,0,1.26,0c0,.31,0,1.72,0,1.93h-2.1Zm2.13-7.29c0,1,0,1.78,0,2.56-.61,0-1.46,0-1.9.08,0-.23.29-1.14,1.9-2.63Zm2.36,2.63c-.44,0-1.29-.07-1.9-.08,0,0,0-1.94,0-2.56,1.61,1.5,1.86,2.41,1.9,2.63ZM129,17.77h0V15.84l1.26,0,.76,0h0c0,.25.07,1.58.08,1.89Zm-2.43-4.2c.72,0,1.31-.07,1.93-.08,0,.24,0,1.43,0,1.9l-1.21,0-.8,0c0-.25.07-1.62.08-1.86Zm3.63,1.85-1.21,0c0-.31,0-.94,0-1.39v-.51c.62,0,1.21,0,1.93.08h0c0,.24.07,1.61.08,1.86l-.8,0Zm-2,3.88h1.07c0-.28,0-.58,0-.58h3.8l-.07-.94h-.9l-.24-3.89.85.1-.07-.94-.88-.1c-.49-1.89-3-3.83-3-3.83s-2.51,1.95-3,3.83l-.88.1-.07.94.85-.1-.24,3.89h-.9s-.05.63-.07.94h3.81s0,.3,0,.58Z" transform="translate(0 0)"/><path id="Fill-23" class="cls-1" d="M133,20.89c.06.92.1,1.68.15,2.44-.44.06-.84.1-1.28.14a1,1,0,0,0,0-.13A3.29,3.29,0,0,1,133,20.89m1.85,2s0,.09,0,.13h0l-1.25.2c-.05-.75-.1-1.51-.16-2.41a2.72,2.72,0,0,1,1.4,2.08m-1.07,2.76-.14-2,1.26-.2c.06.66.11,1.31.17,2l-1.3.21m-1.88-1.77h0l1.29-.14.13,2-1.32.15q0-1-.09-2m-1-.51q.05,1.76.11,3.52a36.42,36.42,0,0,0,5.09-.69l-.35-3.49a3.88,3.88,0,0,0-2.65-3.11,4.63,4.63,0,0,0-2.2,3.76" transform="translate(0 0)"/><path id="Fill-25" class="cls-1" d="M124.17,25.76h0q0-.68.09-1.35l0-.62c.43.06.83.1,1.29.14h0l-.09,2-1.32-.15m-1.59-2.24c.45.08.85.15,1.26.2l-.14,2-1.3-.21.17-2M124,20.85c0,.63-.08,1.19-.12,1.73l0,.68-1.25-.2h0s0-.1,0-.13a2.72,2.72,0,0,1,1.4-2.08m1.58,2.48a1.2,1.2,0,0,1,0,.13l-1.28-.14.05-.8c0-.51.07-1,.1-1.64a3.29,3.29,0,0,1,1.13,2.45m.94.07a4.63,4.63,0,0,0-2.2-3.76,3.88,3.88,0,0,0-2.65,3.11l-.35,3.49a36.44,36.44,0,0,0,5.09.69q.05-1.76.11-3.52" transform="translate(0 0)"/><g id="Group-29"><path id="Fill-27" class="cls-1" d="M.43,52h16.2l.48,7.26h-.35l-2.47-6.17-3.81-.3V73.38L13,74v.35H4.07V74l2.56-.65V52.82l-3.81.3L.35,59.3H0Z" transform="translate(0 0)"/></g><path id="Fill-30" class="cls-1" d="M36.34,63.26c0-6.35-1.26-11-5.37-11-3.68,0-5.28,4.48-5.28,10.91s1.26,11,5.37,11c3.72,0,5.28-4.48,5.28-10.91m4.16,0C40.5,69.95,36.69,75,31.06,75c-5.8,0-9.61-5-9.61-11.82,0-6.69,3.94-11.74,9.53-11.74,5.76,0,9.53,4.87,9.53,11.82" transform="translate(0 0)"/><path id="Fill-32" class="cls-1" d="M47.82,65,48,53l-2.51-.65V52h8.92v.35L51.89,53l-.26,12.17c-.13,5.26,1.69,8.21,5.11,8.21s5.41-2.91,5.24-8.26L61.59,53l-3.85-.65V52h7.75v.35L63,53l.13,12.13c0,6.22-2.38,9.82-7.19,9.82-5.2,0-8.23-3.56-8.1-10" transform="translate(0 0)"/><path id="Fill-34" class="cls-1" d="M82.2,58.08c0-2.65-1.08-4.87-4.29-5.13l-2-.13v10.3l2-.09c3.29-.22,4.29-2.22,4.29-5ZM69.47,74.38V74L72,73.38V53l-2.51-.65V52h8c6,0,8.84,2.52,8.84,6,0,3-1.91,5-6.19,5.61v.13l3.29,2,3,5c1.13,1.91,1.78,2.91,3.64,3.3v.35c-4.63.7-6.24-.52-7.71-3.48L78.83,64l-2.94-.17v9.52L78.4,74v.35Z" transform="translate(0 0)"/><path id="Fill-36" class="cls-1" d="M102.34,56.21l-1.26-.09V69.69l1.3-.09c2.69-.22,4.11-2.91,4.11-6.69s-1.43-6.48-4.16-6.69m-.09,14.13H96V70L98,69.56V56.26L96,55.82v-.35h6.15c4.42,0,7.71,2.65,7.71,7.43s-3.29,7.43-7.62,7.43" transform="translate(0 0)"/><path id="Fill-38" class="cls-1" d="M112,62.43a11.57,11.57,0,0,0,2.34-6.17l-1.73-.39v-.35h4.63c-.61,2.91-2.3,5-4.85,7.21Z" transform="translate(0 0)"/><path id="Fill-40" class="cls-1" d="M131.06,65.08l-3-8.82L125,65l3.07,2.35Zm-12,9.3V74l1.73-.65,8.32-22.56H130l8,22.56,1.69.65v.35H131.4V74l2.47-.65-2.51-7.43-3.25,3-3.38-3-2.64,7.52,3.46.65v.35Z" transform="translate(0 0)"/><path id="Fill-42" class="cls-1" d="M156.22,58.08c0-2.65-1.08-4.87-4.29-5.13l-2-.13v10.3l2-.09c3.29-.22,4.29-2.22,4.29-5Zm-12.73,16.3V74l2.51-.65V53l-2.51-.65V52h8c6,0,8.84,2.52,8.84,6,0,3-1.91,5-6.19,5.61v.13l3.29,2,3,5c1.13,1.91,1.78,2.91,3.64,3.3v.35c-4.63.7-6.24-.52-7.71-3.48L152.84,64l-2.95-.17v9.52l2.51.65v.35Z" transform="translate(0 0)"/><path id="Fill-44" class="cls-1" d="M185.33,75h-.39l-2.12-1.09a12,12,0,0,1-5,1.09c-6.89,0-10.18-5.39-10.18-11.82,0-6.69,3.81-11.74,10.61-11.74a12.23,12.23,0,0,1,4.85,1L184.68,51l.52,7.39h-.3l-2.51-4.82a7.1,7.1,0,0,0-4.2-1.22c-4.5,0-6.28,4.56-6.28,10.78,0,6,1.95,10.87,6.37,10.87a9.1,9.1,0,0,0,3.16-.57v-8l-3.38-.65v-.35h9.36v.35l-2.08.65Z" transform="translate(0 0)"/><path id="Fill-46" class="cls-1" d="M208.67,74.38h-16V74l2.51-.65V53l-2.51-.65V52h15.51l.48,6.39h-.3l-2.51-5.22-6.76-.39V62.6l5.46-.17,1.43-3h.26V66.6H206l-1.47-3.13-5.46-.13V73.6l7.28-.39L209.11,67h.3Z" transform="translate(0 0)"/><path id="Fill-48" class="cls-1" d="M223.14,74.38H215.3V74l2.51-.65V53.56l-2.51-1.17V52h6.41l11,18-.3-17-4-.65V52h7.84v.35l-2.55.65V71.69L235.14,74v.35H231l-12.26-20,.35,19,4,.65Z" transform="translate(0 0)"/><g id="Group-52"><path id="Fill-50" class="cls-1" d="M240.85,52h16.2l.47,7.26h-.35l-2.47-6.17-3.81-.3V73.38l2.51.65v.35h-8.92V74l2.56-.65V52.82l-3.81.3-2.47,6.17h-.35Z" transform="translate(0 0)"/></g></g></g></g></svg>